<?xml version="1.0" encoding="utf-8" ?>
<svg
	xmlns="http://www.w3.org/2000/svg"
	width="256"
	height="256"
	viewBox="0 0 24 24"
	stroke-width="1.65"
	stroke="currentColor"
	fill="none"
	stroke-linecap="round"
	stroke-linejoin="round"
	style="color: #3B3B3B;"
>
	<path mask="url(#tag)" d="M9 19c-4.3 1.4 -4.3 -2.5 -6 -3m12 5v-3.5c0 -1 .1 -1.4 -.5 -2c2.8 -.3 5.5 -1.4 5.5 -6a4.6 4.6 0 0 0 -1.3 -3.2a4.2 4.2 0 0 0 -.1 -3.2s-1.1 -.3 -3.5 1.3a12.3 12.3 0 0 0 -6.2 0c-2.4 -1.6 -3.5 -1.3 -3.5 -1.3a4.2 4.2 0 0 0 -.1 3.2a4.6 4.6 0 0 0 -1.3 3.2c0 4.6 2.7 5.7 5.5 6c-.6 .6 -.6 1.2 -.5 2v3.5" />
	<mask id="tag" fill="black" stroke="black" stroke-width="5">
		<rect x="0" y="0" width="100%" height="100%" fill="white" stroke="white" />
		<path d="M 10.74 10.74 L 15.54 10.74 L 21.38 16.58 L 16.58 21.38 L 10.74 15.54 L 10.74 10.74 Z" />
	</mask>
	<path d="M 10.74 10.74 L 15.54 10.74 L 21.38 16.58 L 16.58 21.38 L 10.74 15.54 L 10.74 10.74 Z" />
	<circle cx="14.25" cy="14.25" r="1.25" fill="currentColor" stroke="none" />
</svg>